<mxfile host="65bd71144e">
    <diagram id="m098_Dv88LRax5Zo-4TT" name="Page-1">
        <mxGraphModel dx="698" dy="673" grid="1" gridSize="10" guides="1" tooltips="1" connect="1" arrows="1" fold="1" page="1" pageScale="1" pageWidth="827" pageHeight="1169" math="0" shadow="0">
            <root>
                <mxCell id="0"/>
                <mxCell id="1" parent="0"/>
                <object label="" branch="2" id="2">
                    <mxCell style="shape=sumEllipse;perimeter=ellipsePerimeter;whiteSpace=wrap;html=1;backgroundOutline=1;sketch=1;curveFitting=1;jiggle=2;sketchStyle=comic;" parent="1" vertex="1">
                        <mxGeometry x="350" y="280" width="80" height="80" as="geometry"/>
                    </mxCell>
                </object>
                <object label="" branch="3" nominal="10" id="3">
                    <mxCell style="pointerEvents=1;verticalLabelPosition=bottom;shadow=0;dashed=0;align=center;html=1;verticalAlign=top;shape=mxgraph.electrical.resistors.resistor_1;comic=1;perimeter=rectanglePerimeter;gradientColor=none;strokeColor=default;sketch=1;curveFitting=1;jiggle=2;" parent="1" vertex="1">
                        <mxGeometry x="510" y="310" width="100" height="20" as="geometry"/>
                    </mxCell>
                </object>
                <object label="" branch="3" id="4">
                    <mxCell style="endArrow=classic;html=1;exitX=1;exitY=0.5;exitDx=0;exitDy=0;entryX=0;entryY=0.5;entryDx=0;entryDy=0;entryPerimeter=0;" parent="1" source="2" target="3" edge="1">
                        <mxGeometry width="50" height="50" relative="1" as="geometry">
                            <mxPoint x="470" y="280" as="sourcePoint"/>
                            <mxPoint x="520" y="230" as="targetPoint"/>
                        </mxGeometry>
                    </mxCell>
                </object>
                <mxCell id="5" value="" style="pointerEvents=1;verticalLabelPosition=bottom;shadow=0;dashed=0;align=center;html=1;verticalAlign=top;shape=mxgraph.electrical.capacitors.capacitor_1;sketch=1;curveFitting=1;jiggle=2;sketchStyle=comic;" parent="1" vertex="1">
                    <mxGeometry x="210" y="310" width="100" height="60" as="geometry"/>
                </mxCell>
                <object label="" branch="7" nominal="10 pico" id="6">
                    <mxCell style="pointerEvents=1;verticalLabelPosition=bottom;shadow=0;dashed=0;align=center;html=1;verticalAlign=top;shape=mxgraph.electrical.inductors.inductor_3;sketch=1;curveFitting=1;jiggle=2;sketchStyle=comic;" parent="1" vertex="1">
                        <mxGeometry x="317" y="410" width="100" height="8" as="geometry"/>
                    </mxCell>
                </object>
                <object label="" branch="3" id="7">
                    <mxCell style="pointerEvents=1;verticalLabelPosition=bottom;shadow=0;dashed=0;align=center;html=1;verticalAlign=top;shape=mxgraph.electrical.signal_sources.source;aspect=fixed;points=[[0.5,0,0],[1,0.5,0],[0.5,1,0],[0,0.5,0]];elSignalType=dc1;" parent="1" vertex="1">
                        <mxGeometry x="337" y="460" width="60" height="60" as="geometry"/>
                    </mxCell>
                </object>
                <object label="" branch="1" nominal="2" id="8">
                    <mxCell style="pointerEvents=1;verticalLabelPosition=bottom;shadow=0;dashed=0;align=center;html=1;verticalAlign=top;shape=mxgraph.electrical.inductors.transformer_2;sketch=1;strokeColor=default;gradientColor=none;" parent="1" vertex="1">
                        <mxGeometry x="480" y="400" width="64" height="60" as="geometry"/>
                    </mxCell>
                </object>
                <object label="" branch="3" nominal="2" id="9">
                    <mxCell style="verticalLabelPosition=bottom;shadow=0;dashed=0;align=center;html=1;verticalAlign=top;shape=mxgraph.electrical.logic_gates.inverting_contact;" parent="1" vertex="1">
                        <mxGeometry x="270" y="560" width="110" height="150" as="geometry"/>
                    </mxCell>
                </object>
                <object label="" placeholders="1" branch="3" id="11">
                    <mxCell style="endArrow=classic;html=1;" parent="1" edge="1">
                        <mxGeometry width="50" height="50" relative="1" as="geometry">
                            <mxPoint x="130" y="160" as="sourcePoint"/>
                            <mxPoint x="220" y="140" as="targetPoint"/>
                        </mxGeometry>
                    </mxCell>
                </object>
            </root>
        </mxGraphModel>
    </diagram>
</mxfile>